<svg width="102" height="36" viewBox="0 0 102 36" fill="none" xmlns="http://www.w3.org/2000/svg">
<ellipse cx="18" cy="17.9947" rx="18" ry="17.9947" fill="white"/>
<path d="M35.9775 17.0728C35.4957 7.56425 27.6321 0 17.9988 0C17.6236 0 17.2531 0.0153841 16.8837 0.039052C16.8683 0.039052 16.8565 0.0426022 16.8411 0.0426022C16.5014 0.0639032 16.1652 0.0946714 15.8326 0.13609C15.7805 0.13964 15.7331 0.147924 15.681 0.153841C15.3721 0.196443 15.0691 0.241412 14.766 0.295848C14.7175 0.301765 14.6725 0.313599 14.624 0.319516C13.5906 0.515959 12.582 0.801157 11.6149 1.16801C11.5604 1.18931 11.506 1.21298 11.448 1.23191C11.1899 1.33487 10.939 1.44137 10.6868 1.55261C10.6146 1.58338 10.5448 1.61651 10.4714 1.64965C10.2287 1.76207 9.98369 1.88041 9.74694 2.00348C9.68657 2.03425 9.6262 2.06384 9.56465 2.09697C8.97396 2.40939 8.39747 2.75731 7.8494 3.13244C7.79495 3.16913 7.74286 3.20818 7.68605 3.24723C7.47415 3.39515 7.26818 3.54663 7.05866 3.7052C6.97698 3.76911 6.90122 3.82946 6.82191 3.89336C6.63962 4.03537 6.46442 4.18093 6.28804 4.33004C6.20873 4.39986 6.13297 4.46613 6.0513 4.53595C5.87255 4.69925 5.69381 4.86256 5.51743 5.03297C5.45706 5.08741 5.39669 5.14776 5.33513 5.20575C5.10193 5.43651 4.87465 5.672 4.6533 5.9146C4.64146 5.93235 4.62607 5.95128 4.61068 5.96312C4.40708 6.19033 4.21413 6.42109 4.02236 6.65067C3.96199 6.72996 3.90162 6.80806 3.84006 6.8838C3.69801 7.06604 3.55833 7.2471 3.4222 7.43171C3.39498 7.47431 3.36183 7.51691 3.33105 7.55951C3.33105 7.55951 3.3346 7.55951 3.3346 7.56307C1.23938 10.5062 0 14.1072 0 18.0006C0 21.894 1.23938 25.4915 3.33934 28.4369L3.33579 28.4405C3.39971 28.5316 3.46955 28.6156 3.53584 28.7067C3.65066 28.8582 3.76667 29.0132 3.88386 29.1612C3.9833 29.2949 4.09338 29.4192 4.19874 29.5434C4.31356 29.6854 4.43193 29.8251 4.55268 29.9611C4.6675 30.0949 4.78943 30.2191 4.90662 30.3434C5.02499 30.4736 5.14336 30.5978 5.26766 30.7185C5.39787 30.8522 5.53163 30.9765 5.66776 31.1031C5.78614 31.2155 5.90451 31.3268 6.02289 31.4333C6.17085 31.567 6.32237 31.6913 6.47389 31.8155C6.58871 31.9126 6.70472 32.012 6.81954 32.1066C6.98645 32.2344 7.15573 32.3575 7.32264 32.4889C7.40195 32.5433 7.47415 32.6072 7.55583 32.6616C7.55583 32.6616 7.55583 32.6581 7.55938 32.6581C10.5022 34.761 14.1019 36 17.9988 36C21.8957 36 25.4919 34.761 28.4406 32.6581V32.6616C28.4678 32.6439 28.4927 32.6226 28.5164 32.6013C28.7472 32.4404 28.9674 32.2676 29.1887 32.096C29.2314 32.0629 29.274 32.0297 29.3166 31.9966C29.841 31.5729 30.3382 31.1209 30.8105 30.6451C30.8472 30.6061 30.8862 30.5635 30.9253 30.5244C31.1135 30.3339 31.2946 30.1304 31.4769 29.928C31.5373 29.8617 31.5953 29.7943 31.6557 29.7245C31.8107 29.5399 31.9646 29.3552 32.1138 29.1635C32.1718 29.0914 32.2321 29.0156 32.289 28.9422C32.4464 28.7363 32.5956 28.5328 32.7471 28.321C32.7861 28.2606 32.8288 28.2026 32.8714 28.1423C33.0596 27.8665 33.2383 27.5908 33.4135 27.3056C33.423 27.2843 33.4348 27.263 33.4467 27.2417C33.6041 26.9837 33.7497 26.721 33.8918 26.4571C33.9367 26.366 33.9829 26.2749 34.0279 26.1909C34.1309 25.9849 34.2315 25.779 34.3309 25.5696C34.3795 25.4666 34.428 25.3637 34.473 25.2572C34.5606 25.0536 34.6482 24.8477 34.7275 24.6394C34.7701 24.5365 34.8127 24.4335 34.8518 24.3306C34.9453 24.088 35.0305 23.8371 35.1122 23.585C35.1299 23.5211 35.1548 23.4572 35.1761 23.3909C35.2791 23.0762 35.3667 22.7578 35.4484 22.4336C35.4697 22.3484 35.4851 22.2644 35.5064 22.1792C35.5667 21.9366 35.6188 21.6975 35.6674 21.449C35.6887 21.3366 35.71 21.2182 35.7313 21.1011C35.768 20.8798 35.8035 20.6585 35.8307 20.4372C35.8485 20.3129 35.8639 20.1922 35.8793 20.068C35.9065 19.8349 35.9278 19.6017 35.9455 19.365C35.9515 19.2585 35.9633 19.1473 35.9692 19.0408C35.987 18.6952 36 18.3473 36 18.0018C36 17.6929 35.9941 17.384 35.9763 17.0752L35.9775 17.0728ZM9.37525 14.4043C9.13258 14.5285 8.90885 14.6409 8.90885 14.6409C9.07221 13.6256 9.6842 12.7238 10.6028 12.26C11.2598 11.9262 12.0635 11.7262 12.9028 11.7262C13.8628 11.7262 14.7542 11.9925 15.4692 12.4836C15.8172 12.6954 16.106 12.9416 16.3203 13.2043C16.4718 13.3712 16.6292 13.5925 16.7807 13.8433L17.2862 14.719L16.3771 14.2765C15.7284 13.964 15.017 13.8007 14.3079 13.8007C12.1712 13.8007 10.4418 15.1853 10.0263 17.39L9.92687 17.9592C9.92687 17.9592 8.80231 16.532 9.96357 14.1214C9.88426 14.1522 9.62146 14.2824 9.37525 14.4031V14.4043ZM23.7471 26.0583L22.7563 25.4157C22.7468 25.4063 22.735 25.4004 22.7231 25.3921L22.1751 25.0347L21.608 24.6678L20.1663 23.7282C19.2477 23.1223 18.6878 22.0679 18.6878 20.9236V20.2088C19.1305 20.0124 19.4335 19.636 19.4335 19.2006C19.4335 18.7887 19.1672 18.4278 18.7671 18.2254C18.7339 18.2101 18.7031 18.1947 18.67 18.1828C18.4735 18.0976 18.2427 18.0467 18 18.0467C17.7573 18.0467 17.5277 18.0988 17.33 18.1828C17.2969 18.1947 17.2661 18.2101 17.2365 18.2254C16.834 18.429 16.5665 18.7887 16.5665 19.2006C16.5665 19.6372 16.8695 20.0124 17.3122 20.2088V20.9236C17.3122 22.0691 16.7512 23.1223 15.8337 23.7282L14.3943 24.6678L13.8273 25.0347L13.2757 25.3921C13.2638 25.4015 13.2544 25.4074 13.2425 25.4157L12.2517 26.0583L11.9452 22.1389C11.9274 21.1934 12.1144 20.3094 12.4932 19.5307C12.4932 19.5248 12.4968 19.5213 12.4968 19.5213C12.833 18.8302 13.3183 18.2219 13.954 17.7249C15.217 16.7284 16.7085 16.5675 17.9988 16.8764C19.2891 16.5675 20.7806 16.7284 22.0437 17.7249C22.677 18.2219 23.1647 18.8302 23.5009 19.5213C23.5009 19.5213 23.5044 19.5248 23.5044 19.5307C23.8832 20.3094 24.0714 21.1934 24.056 22.1389L23.7471 26.0583ZM21.6874 13.8019C20.9818 13.8019 20.2657 13.9652 19.6205 14.2776L18.7079 14.7202L19.2204 13.8445C19.366 13.5936 19.527 13.3723 19.6809 13.2055C19.8928 12.9416 20.184 12.6966 20.5297 12.4848C21.2423 11.9937 22.136 11.7274 23.096 11.7274C23.9353 11.7274 24.7379 11.9274 25.396 12.2611C26.3111 12.725 26.9266 13.6268 27.0864 14.6421C27.0864 14.6421 26.8651 14.5297 26.6224 14.4054C26.3797 14.2847 26.1169 14.1546 26.0341 14.1238C27.1918 16.5356 26.0708 17.9615 26.0708 17.9615L25.9713 17.3923C25.5535 15.1865 23.8264 13.8031 21.6862 13.8031L21.6874 13.8019ZM26.8591 30.4014C24.6739 26.6334 26.8591 22.8194 26.8591 22.8194L27.7564 24.7246C29.4409 22.6016 31.0318 19.3627 30.3263 15.1131C29.9629 12.9262 28.8384 11.0482 26.9775 9.52986C25.75 8.52398 24.3022 8.01512 22.6746 8.01512C20.9049 8.01512 19.2867 8.60327 18.2261 9.04467L17.9988 9.13816L17.7715 9.04467C16.7109 8.60208 15.0927 8.01512 13.3207 8.01512C11.6966 8.01512 10.2512 8.52398 9.01776 9.52986C7.16046 11.047 6.03354 12.9262 5.6725 15.1131C4.96699 19.3627 6.55675 22.6016 8.2424 24.7246L9.13613 22.8194C9.13613 22.8194 11.3213 26.6334 9.13613 30.4014C5.25464 27.6322 2.72379 23.0915 2.72379 17.9604C2.72379 9.52395 9.55991 2.68394 17.9988 2.68394C26.4377 2.68394 33.2774 9.52395 33.2774 17.9604C33.2774 23.0915 30.7442 27.6334 26.8591 30.4014Z" fill="#0C0C0C"/>
<path d="M48.5254 11.0394C48.2298 10.1565 47.4028 9.5625 46.4717 9.5625C45.5407 9.5625 44.7166 10.1565 44.421 11.0394L39.375 26.1139H41.9505L43.2088 22.3542H49.725L50.993 26.1139H53.5714L48.5254 11.0394ZM43.9945 20.005L46.4544 12.6588L48.9317 20.005H43.9935H43.9945Z" fill="#0C0C0C"/>
<path d="M65.6679 16.4879C65.2193 15.4943 64.5665 14.6952 63.7289 14.1175C62.8806 13.5369 61.8659 13.2413 60.7057 13.2413C59.5455 13.2413 58.5201 13.5369 57.7037 14.1175C57.516 14.2532 57.3388 14.3986 57.1684 14.5623V13.5793H54.9058V31.4651H57.3908V25.3176C57.4919 25.4014 57.592 25.4842 57.697 25.5574C58.5105 26.1485 59.5176 26.447 60.6961 26.447C61.8745 26.447 62.8854 26.1514 63.7298 25.568C64.5703 24.9874 65.2241 24.1844 65.6689 23.1841C66.1137 22.1934 66.3399 21.0679 66.3399 19.8345C66.3399 18.6012 66.1137 17.4747 65.6689 16.4879H65.6679ZM63.3678 22.0624C63.1242 22.7056 62.7564 23.2197 62.2693 23.5914C61.7936 23.9563 61.1784 24.144 60.4486 24.144C59.7188 24.144 59.0728 23.963 58.6001 23.6058C58.1206 23.2476 57.7595 22.7402 57.5265 22.101C57.2907 21.4443 57.1684 20.6799 57.1684 19.8355C57.1684 18.9911 57.2897 18.2199 57.5333 17.5662C57.7663 16.9308 58.1273 16.4301 58.6001 16.0758C59.0661 15.7282 59.6707 15.5511 60.3928 15.5511C61.1534 15.5511 61.7831 15.735 62.2654 16.1037C62.7516 16.4754 63.1233 16.9866 63.3668 17.622C63.6172 18.2758 63.7423 19.0229 63.7423 19.8355C63.7423 20.6481 63.6172 21.4058 63.3668 22.0634L63.3678 22.0624Z" fill="#0C0C0C"/>
<path d="M72.8532 26.4365C71.3744 26.4365 70.141 26.1052 69.185 25.4515C68.2154 24.7881 67.6118 23.8475 67.3932 22.6565L67.348 22.412L69.8445 22.0143L69.8984 22.231C70.0476 22.8289 70.3827 23.291 70.9218 23.6424C71.4658 23.9977 72.1571 24.1777 72.9755 24.1777C73.7371 24.1777 74.3407 24.0208 74.7682 23.7108C75.1774 23.4142 75.3757 23.0233 75.3757 22.5131C75.3757 22.2329 75.3131 22.0057 75.1889 21.8372C75.1013 21.7188 74.8818 21.5329 74.333 21.3231C73.8536 21.1401 73.1199 20.9139 72.1523 20.6501C71.0807 20.3651 70.2209 20.0657 69.598 19.7585C68.951 19.4389 68.4792 19.0557 68.1962 18.6186C67.9112 18.1786 67.7668 17.6384 67.7668 17.0136C67.7668 16.2578 67.9776 15.5858 68.3936 15.0177C68.8047 14.4564 69.3852 14.0145 70.1179 13.7045C70.84 13.3993 71.6882 13.2443 72.6385 13.2443C73.5888 13.2443 74.436 13.3964 75.1832 13.6968C75.939 14.0001 76.558 14.4391 77.025 14.9994C77.4958 15.5656 77.7789 16.2337 77.8665 16.9847L77.8925 17.211L75.3911 17.6644L75.3536 17.417C75.266 16.8403 74.9925 16.3955 74.516 16.0566C74.0307 15.7109 73.3962 15.5261 72.6318 15.5049C72.5807 15.503 72.5297 15.503 72.4806 15.503C71.8211 15.503 71.2781 15.6339 70.866 15.8919C70.451 16.1519 70.2498 16.486 70.2498 16.9125C70.2498 17.1503 70.3191 17.3438 70.4616 17.5037C70.5685 17.623 70.814 17.8108 71.3811 18.0236C71.8644 18.2055 72.5817 18.4164 73.5137 18.6513C74.5891 18.9219 75.4528 19.2232 76.0815 19.5467C76.7323 19.8827 77.206 20.2881 77.4891 20.7521C77.7721 21.2171 77.9146 21.79 77.9146 22.4572C77.9146 23.6906 77.4515 24.6774 76.5378 25.388C75.6434 26.0841 74.4033 26.4374 72.8522 26.4374L72.8532 26.4365Z" fill="#0C0C0C"/>
<path d="M90.6851 16.4359C90.2056 15.449 89.4999 14.6605 88.593 14.0934C87.6899 13.5302 86.598 13.2423 85.3541 13.2423C84.1102 13.2423 83.0636 13.5234 82.1567 14.0761C81.2536 14.6287 80.5411 15.4144 80.0472 16.408C79.5571 17.391 79.3107 18.5454 79.3107 19.8346C79.3107 21.1237 79.5543 22.2637 80.0366 23.2505C80.5228 24.2413 81.2247 25.0298 82.1288 25.5959C83.029 26.1591 84.1169 26.447 85.3532 26.447C86.5894 26.447 87.6783 26.162 88.5814 25.6026C89.4883 25.0394 90.1941 24.2547 90.6803 23.2602C91.1636 22.2733 91.4062 21.1228 91.4062 19.8336C91.4062 18.5444 91.1626 17.4151 90.6832 16.4349L90.6851 16.4359ZM87.9402 22.9242C87.3702 23.6992 86.5258 24.0747 85.3551 24.0747C84.1843 24.0747 83.3746 23.7059 82.7902 22.9453C82.2029 22.1741 81.9044 21.1276 81.9044 19.8355C81.9044 18.995 82.0334 18.244 82.2905 17.6047C82.537 16.9828 82.9192 16.4927 83.4199 16.1413C83.9167 15.7937 84.5704 15.6166 85.3551 15.6166C86.5191 15.6166 87.3635 15.9815 87.9373 16.7353C88.5207 17.4998 88.8163 18.5425 88.8163 19.8355C88.8163 21.1285 88.5207 22.1395 87.9402 22.9251V22.9242Z" fill="#0C0C0C"/>
</svg>
