<svg width="124" height="124" viewBox="0 0 124 124" fill="none" xmlns="http://www.w3.org/2000/svg">
<ellipse cx="62" cy="61.9817" rx="62" ry="61.9817" fill="white"/>
<path d="M123.923 58.8064C122.263 26.0546 95.1773 0 61.9959 0C60.7034 0 59.4272 0.0529897 58.1551 0.134512C58.1021 0.134512 58.0613 0.146741 58.0083 0.146741C56.8381 0.220111 55.6801 0.326091 54.5344 0.468755C54.355 0.480984 54.1919 0.509516 54.0125 0.529897C52.9483 0.676638 51.9045 0.831531 50.8607 1.01903C50.6935 1.03941 50.5386 1.08017 50.3714 1.10056C46.8119 1.77719 43.338 2.75954 40.0068 4.02314C39.8193 4.09651 39.6317 4.17804 39.4319 4.24325C38.5431 4.59788 37.6787 4.96473 36.8102 5.34789C36.5615 5.45386 36.3209 5.568 36.0681 5.68213C35.2323 6.06936 34.3883 6.47697 33.5728 6.90089C33.3649 7.00687 33.1569 7.10877 32.9449 7.22291C30.9103 8.299 28.9246 9.49739 27.0368 10.7895C26.8493 10.9159 26.6699 11.0504 26.4742 11.1849C25.7443 11.6944 25.0349 12.2162 24.3132 12.7624C24.0318 12.9825 23.7709 13.1904 23.4977 13.4105C22.8698 13.8996 22.2663 14.401 21.6588 14.9146C21.3856 15.1551 21.1247 15.3833 20.8434 15.6238C20.2277 16.1863 19.612 16.7488 19.0045 17.3358C18.7965 17.5233 18.5886 17.7312 18.3766 17.9309C17.5733 18.7257 16.7905 19.5369 16.028 20.3725C15.9872 20.4336 15.9342 20.4989 15.8812 20.5396C15.1799 21.3222 14.5153 22.1171 13.8548 22.9079C13.6468 23.181 13.4389 23.45 13.2269 23.7109C12.7376 24.3386 12.2565 24.9622 11.7876 25.5981C11.6938 25.7448 11.5796 25.8916 11.4736 26.0383C11.4736 26.0383 11.4859 26.0383 11.4859 26.0506C4.26897 36.1879 0 48.5916 0 62.002C0 75.4125 4.26897 87.804 11.5022 97.9494L11.4899 97.9617C11.7101 98.2755 11.9507 98.5649 12.179 98.8788C12.5745 99.4006 12.9741 99.9345 13.3777 100.444C13.7202 100.905 14.0994 101.333 14.4623 101.761C14.8578 102.25 15.2656 102.731 15.6814 103.2C16.0769 103.66 16.4969 104.088 16.9006 104.516C17.3083 104.964 17.716 105.392 18.1442 105.808C18.5927 106.269 19.0534 106.697 19.5223 107.133C19.93 107.52 20.3378 107.903 20.7455 108.27C21.2552 108.731 21.7771 109.159 22.299 109.587C22.6945 109.921 23.094 110.263 23.4895 110.59C24.0644 111.03 24.6475 111.454 25.2224 111.906C25.4956 112.094 25.7443 112.314 26.0257 112.501C26.0257 112.501 26.0256 112.489 26.0379 112.489C36.1741 119.732 48.5733 124 61.9959 124C75.4185 124 87.8055 119.732 97.9621 112.489V112.501C98.0559 112.44 98.1415 112.367 98.2231 112.293C99.0182 111.739 99.7765 111.144 100.539 110.553C100.686 110.439 100.833 110.325 100.979 110.21C102.786 108.751 104.498 107.194 106.125 105.556C106.251 105.421 106.386 105.274 106.52 105.14C107.169 104.483 107.793 103.782 108.42 103.085C108.628 102.857 108.828 102.625 109.036 102.384C109.57 101.748 110.1 101.113 110.614 100.452C110.814 100.204 111.022 99.9427 111.218 99.69C111.76 98.9807 112.274 98.2796 112.795 97.55C112.93 97.3421 113.077 97.1424 113.224 96.9345C113.872 95.9847 114.488 95.035 115.091 94.0527C115.124 93.9793 115.164 93.9059 115.205 93.8326C115.747 92.944 116.249 92.0391 116.738 91.1301C116.893 90.8162 117.052 90.5024 117.207 90.213C117.562 89.5037 117.908 88.7945 118.251 88.073C118.418 87.7184 118.585 87.3637 118.74 86.9969C119.042 86.2958 119.344 85.5865 119.617 84.8691C119.764 84.5145 119.91 84.1599 120.045 83.8053C120.367 82.9697 120.661 82.1055 120.942 81.2373C121.003 81.0172 121.089 80.7971 121.162 80.5688C121.517 79.4846 121.819 78.3881 122.1 77.2712C122.173 76.9778 122.226 76.6883 122.3 76.3949C122.508 75.5593 122.687 74.7359 122.854 73.8799C122.928 73.4927 123.001 73.085 123.074 72.6815C123.201 71.9193 123.323 71.157 123.417 70.3948C123.478 69.9668 123.531 69.551 123.584 69.123C123.678 68.32 123.751 67.5171 123.812 66.7018C123.833 66.335 123.874 65.9518 123.894 65.585C123.955 64.3947 124 63.1963 124 62.0061C124 60.9422 123.98 59.8784 123.918 58.8145L123.923 58.8064ZM32.2925 49.6147C31.4567 50.0427 30.686 50.4299 30.686 50.4299C31.2487 46.9326 33.3567 43.8266 36.5207 42.2287C38.7836 41.0793 41.5522 40.3904 44.443 40.3904C47.7497 40.3904 50.8199 41.3075 53.2826 42.9991C54.4814 43.7287 55.4763 44.5766 56.2143 45.4815C56.7362 46.0562 57.2784 46.8185 57.8003 47.6826L59.5414 50.6989L56.41 49.1745C54.1756 48.0984 51.7251 47.5359 49.2828 47.5359C41.9232 47.5359 35.9662 52.3049 34.5351 59.8988L34.1926 61.8594C34.1926 61.8594 30.3191 56.9436 34.319 48.6405C34.0458 48.7465 33.1406 49.1948 32.2925 49.6106V49.6147ZM81.7955 89.7564L78.3827 87.5431C78.3501 87.5105 78.3094 87.4901 78.2686 87.4616L76.3808 86.2306L74.4277 84.967L69.4615 81.7305C66.2975 79.6435 64.3689 76.0117 64.3689 72.0701V69.6081C65.8939 68.9315 66.9377 67.6353 66.9377 66.1352C66.9377 64.7167 66.0203 63.4735 64.6421 62.7765C64.5279 62.7235 64.4219 62.6705 64.3078 62.6298C63.6309 62.3363 62.8359 62.161 62 62.161C61.1641 62.161 60.3731 62.3404 59.6922 62.6298C59.5781 62.6705 59.4721 62.7235 59.3701 62.7765C57.9838 63.4776 57.0623 64.7167 57.0623 66.1352C57.0623 67.6393 58.1061 68.9315 59.6311 69.6081V72.0701C59.6311 76.0158 57.6984 79.6435 54.5385 81.7305L49.5804 84.967L47.6274 86.2306L45.7273 87.4616C45.6866 87.4942 45.654 87.5146 45.6132 87.5431L42.2004 89.7564L41.1444 76.2563C41.0833 72.9994 41.7275 69.9546 43.0322 67.2725C43.0322 67.2521 43.0445 67.2399 43.0445 67.2399C44.2024 64.8594 45.8741 62.7643 48.0637 61.0523C52.4142 57.6202 57.5516 57.0658 61.9959 58.1297C66.4402 57.0658 71.5777 57.6202 75.9282 61.0523C78.1096 62.7643 79.7894 64.8594 80.9474 67.2399C80.9474 67.2399 80.9596 67.2521 80.9596 67.2725C82.2644 69.9546 82.9127 72.9994 82.8597 76.2563L81.7955 89.7564ZM74.7009 47.5399C72.2708 47.5399 69.804 48.1024 67.5819 49.1785L64.4382 50.703L66.2037 47.6867C66.7052 46.8225 67.2598 46.0603 67.7898 45.4856C68.5197 44.5766 69.5227 43.7328 70.7133 43.0032C73.1678 41.3116 76.2462 40.3945 79.5529 40.3945C82.4438 40.3945 85.2082 41.0833 87.4752 42.2328C90.627 43.8306 92.7472 46.9367 93.2977 50.434C93.2977 50.434 92.5352 50.0467 91.6993 49.6188C90.8635 49.203 89.9583 48.7546 89.6729 48.6486C93.6605 56.9558 89.7993 61.8675 89.7993 61.8675L89.4568 59.9069C88.0175 52.309 82.0687 47.544 74.6968 47.544L74.7009 47.5399ZM92.5148 104.716C84.988 91.7374 92.5148 78.6001 92.5148 78.6001L95.6054 85.1626C101.407 77.85 106.887 66.6937 104.457 52.0563C103.206 44.5236 99.3321 38.0548 92.9225 32.8251C88.6943 29.3604 83.7077 27.6076 78.1014 27.6076C72.0058 27.6076 66.4321 29.6335 62.7788 31.1539L61.9959 31.4759L61.2131 31.1539C57.5598 29.6294 51.9861 27.6076 45.8823 27.6076C40.2882 27.6076 35.3097 29.3604 31.0612 32.8251C24.6638 38.0507 20.7822 44.5236 19.5386 52.0563C17.1085 66.6937 22.5844 77.85 28.3905 85.1626L31.4689 78.6001C31.4689 78.6001 38.9957 91.7374 31.4689 104.716C18.0993 95.1777 9.38196 79.5376 9.38196 61.8635C9.38196 32.8047 32.9286 9.24467 61.9959 9.24467C91.0633 9.24467 114.622 32.8047 114.622 61.8635C114.622 79.5376 105.897 95.1818 92.5148 104.716Z" fill="#0C0C0C"/>
</svg>
